<svg width="320" height="320" viewBox="0 0 320 320" xmlns="http://www.w3.org/2000/svg" role="img" aria-label="ON Mobility Logo">
  <rect width="320" height="320" fill="#dcdcdc"/>

  <circle cx="176" cy="160" r="112" fill="none" stroke="#111111" stroke-width="6"/>
  <line x1="145" y1="20" x2="145" y2="300" stroke="#111111" stroke-width="8"/>

  <text x="52" y="164" font-size="146" font-family="Times New Roman, serif" fill="#050505">O</text>
  <text x="74" y="238" font-size="122" font-family="Times New Roman, serif" fill="#050505">N</text>

  <path d="M182 110h58c10 0 18 5 22 13l11 23h11a8 8 0 110 16h-7v26c0 5-4 9-9 9h-89c-5 0-9-4-9-9v-68c0-5 4-10 12-10z" fill="#111111"/>
  <circle cx="196" cy="192" r="13" fill="#efefef"/>
  <circle cx="251" cy="192" r="13" fill="#efefef"/>
  <rect x="202" y="173" width="30" height="10" rx="5" fill="#f6f6f6"/>
  <path d="M191 123h39c5 0 9 2 11 6l8 15h-74v-11c0-6 5-10 16-10z" fill="#d7d7d7"/>

  <path id="arc" d="M212 292A108 108 0 0 0 290 219" fill="none"/>
  <text font-size="50" font-family="Times New Roman, serif" fill="#111111" letter-spacing="2">
    <textPath href="#arc" startOffset="0%">MOBILITY</textPath>
  </text>
</svg>
